<svg width="36" height="35" fill="none" xmlns="http://www.w3.org/2000/svg"><path fill-rule="evenodd" clip-rule="evenodd" d="M28.358 8.4H6.928c-1.005 0-1.82.82-1.82 1.83v14.54c0 1.01.815 1.83 1.82 1.83h21.43c1.006 0 1.821-.82 1.821-1.83V10.23c0-1.01-.815-1.83-1.821-1.83zM6.928 7a3.223 3.223 0 00-3.214 3.23v14.54c0 1.784 1.44 3.23 3.215 3.23h21.429a3.223 3.223 0 003.214-3.23V10.23A3.222 3.222 0 0028.358 7H6.928z" fill="#fff"/><path d="M5.107 21H30.18v2.8H5.108V21z" fill="#FFDC7D"/><path fill-rule="evenodd" clip-rule="evenodd" d="M9.982 15.4c1.154 0 2.09-.94 2.09-2.1 0-1.16-.936-2.1-2.09-2.1s-2.09.94-2.09 2.1c0 1.16.936 2.1 2.09 2.1zm0 1.4a3.491 3.491 0 003.482-3.5c0-1.933-1.559-3.5-3.482-3.5A3.491 3.491 0 006.5 13.3c0 1.933 1.559 3.5 3.482 3.5z" fill="#FFC627"/></svg>