<svg width="194" height="41" fill="none" xmlns="http://www.w3.org/2000/svg"><g clip-path="url(#clip0_29802_142265)"><path fill-rule="evenodd" clip-rule="evenodd" d="M36.325 1.09c4.094 1.651 6.88 5.225 6.88 10.992v15.143H34.58V12.831c0-1.064-.179-1.944-.496-2.654-.696-1.55-2.076-2.277-3.835-2.281-1.71.004-3.062.705-3.772 2.172-.353.726-.549 1.642-.549 2.758v14.399h-8.652V12.831c0-1.007-.16-1.848-.446-2.536-.679-1.624-2.08-2.395-3.884-2.4-1.732.005-3.098.719-3.799 2.225-.335.718-.522 1.616-.522 2.706v14.39H0V12.082c0-5.767 2.786-9.34 6.884-10.987l.004-.009c.308-.127.63-.236.951-.337l.165-.053c.357-.11.723-.206 1.094-.289l.02-.004a16.35 16.35 0 012.44-.35l.196-.014C12.143.018 12.535 0 12.937 0h.027c3.321 0 6.348.828 8.638 2.536C23.897.828 26.92 0 30.24 0h.027c.41 0 .817.018 1.219.04l.069.004c.023 0 .046.002.07.004.41.03.812.07 1.21.127l.03.005c.01 0 .02.002.032.004a15.86 15.86 0 012.39.536l.065.02c.33.105.652.215.969.342l.004.008zm23.91 26.858c8.46 0 14.687-5.947 14.687-13.974C74.922 5.947 68.7 0 60.24 0c-8.433 0-14.66 5.947-14.665 13.974 0 8.027 6.227 13.974 14.66 13.974zm.005-7.892c-3.366 0-5.844-2.513-5.844-6.082 0-3.57 2.482-6.083 5.844-6.083 3.392 0 5.87 2.514 5.87 6.083 0 3.569-2.482 6.082-5.87 6.082zm31.718 7.892c8.459 0 14.687-5.947 14.687-13.974C106.645 5.947 100.417 0 91.958 0c-8.433 0-14.656 5.947-14.66 13.974 0 8.027 6.227 13.974 14.66 13.974zm.004-7.892c-3.366 0-5.843-2.513-5.843-6.082 0-3.57 2.477-6.083 5.843-6.083 3.393 0 5.87 2.514 5.87 6.083 0 3.569-2.481 6.082-5.87 6.082zm72.722-6.082c0 .867-.054 2.054-.165 2.623h-18.321c.714 2.89 2.808 4.243 5.785 4.243 2.013 0 4.188-.81 5.897-2.325l5.567 5.08c-2.812 2.759-6.915 4.353-11.901 4.353-8.487 0-14.246-5.54-14.246-13.812C137.296 5.785 142.943 0 151.157 0c8.018 0 13.5 5.675 13.527 13.974zm-18.46-2.728h9.835c-.688-2.65-2.371-4.055-4.875-4.055-2.674 0-4.299 1.431-4.96 4.055zm-11.303.836c0-5.78-2.799-9.354-6.906-11l-.004-.01c-.065-.025-.133-.045-.2-.066a3.798 3.798 0 01-.144-.047 14.55 14.55 0 00-.866-.293 10.85 10.85 0 00-.377-.101 16.715 16.715 0 00-.976-.227c-.196-.04-.393-.075-.594-.106a18.21 18.21 0 00-.857-.11l-.054-.006c-.173-.02-.343-.039-.517-.055-.415-.03-.835-.048-1.264-.052-.031 0-.062-.003-.092-.005a1.18 1.18 0 00-.086-.004h-.072c-.477 0-.946.022-1.41.057-.114.009-.226.02-.339.033l-.179.02a15.32 15.32 0 00-1.468.218h-.001a17.188 17.188 0 00-.98.225c-.127.032-.254.064-.381.104-.313.092-.616.197-.92.31a1.716 1.716 0 01-.127.042c-.06.018-.12.037-.177.06l-.004.008c-4.107 1.647-6.906 5.22-6.906 11v15.135h8.625V12.826c0-1.029.165-1.887.468-2.588.683-1.59 2.076-2.338 3.853-2.347 1.812.005 3.219.784 3.893 2.426.281.683.437 1.515.437 2.505v14.394h8.625V12.082zm49.7 5.483l-3.04-5.895-1.375-2.667L184.768 0H194l-9.379 17.565z" fill="#fff"/><path d="M183.272 20.26L172.859 0h-9.702l11.114 20.26-11.114 20.26h9.702l10.413-20.26z" fill="#FFC627"/></g><defs><clipPath id="clip0_29802_142265"><path fill="#fff" d="M0 0h194v40.417H0z"/></clipPath></defs></svg>