<svg width="203" height="43" fill="none" xmlns="http://www.w3.org/2000/svg"><g clip-path="url(#clip0_29802_142256)"><path fill-rule="evenodd" clip-rule="evenodd" d="M38.01 1.161c4.284 1.753 7.199 5.547 7.199 11.67v16.08h-9.025V13.626c0-1.13-.187-2.065-.519-2.818-.728-1.646-2.172-2.418-4.012-2.422-1.79.004-3.205.748-3.948 2.306-.369.772-.574 1.744-.574 2.93V28.91h-9.053V13.627c0-1.07-.168-1.962-.467-2.692-.71-1.725-2.177-2.544-4.064-2.548-1.813.004-3.242.762-3.976 2.362-.35.762-.546 1.715-.546 2.873v15.279H0v-16.07C0 6.709 2.915 2.915 7.203 1.167l.005-.01c.322-.134.658-.25.995-.357A15.312 15.312 0 019.52.435L9.541.43l.021-.004a16.193 16.193 0 011.313-.238 17.36 17.36 0 011.219-.13l.103-.007.103-.007c.406-.023.817-.042 1.237-.042h.028c3.476 0 6.643.88 9.04 2.693C25.004.882 28.167.003 31.642.003h.028c.43 0 .855.019 1.276.042.025.003.049.004.072.005a18.49 18.49 0 011.404.149c.84.125 1.653.307 2.433.548l.068.021.068.021c.346.112.682.228 1.014.363l.004.01zm25.02 28.516c8.852 0 15.368-6.314 15.368-14.836 0-8.523-6.512-14.838-15.364-14.838-8.824 0-15.34 6.315-15.345 14.838 0 8.522 6.517 14.836 15.34 14.836zm.004-8.378c-3.522 0-6.114-2.67-6.114-6.458 0-3.79 2.597-6.459 6.114-6.459 3.55 0 6.143 2.669 6.143 6.459 0 3.789-2.597 6.458-6.143 6.458zm33.19 8.378c8.852 0 15.368-6.314 15.368-14.836 0-8.523-6.516-14.838-15.368-14.838-8.824 0-15.336 6.315-15.34 14.838 0 8.522 6.516 14.836 15.34 14.836zm.004-8.378c-3.522 0-6.114-2.67-6.114-6.458 0-3.79 2.592-6.459 6.114-6.459 3.55 0 6.143 2.669 6.143 6.459 0 3.789-2.597 6.458-6.142 6.458zm76.096-6.458c0 .92-.056 2.18-.173 2.785H152.98c.747 3.068 2.938 4.505 6.054 4.505 2.107 0 4.382-.86 6.171-2.469l5.825 5.394c-2.943 2.93-7.236 4.621-12.454 4.621-8.88 0-14.906-5.881-14.906-14.665-.005-8.866 5.905-15.009 14.5-15.009 8.389 0 14.126 6.026 14.154 14.838zm-19.316-2.897h10.291c-.72-2.813-2.481-4.306-5.101-4.306-2.798 0-4.499 1.52-5.19 4.306zm-11.828.888c0-6.138-2.929-9.932-7.226-11.68l-.005-.01a2.773 2.773 0 00-.209-.07 4.668 4.668 0 01-.151-.05 14.462 14.462 0 00-.906-.312 10.706 10.706 0 00-.394-.107l-.176-.046c-.28-.07-.56-.14-.845-.196a13.459 13.459 0 00-.621-.111 19.01 19.01 0 00-.897-.116l-.057-.007a23.193 23.193 0 00-.541-.058 20.538 20.538 0 00-1.322-.056c-.034 0-.066-.003-.097-.005a1.189 1.189 0 00-.09-.005h-.075c-.5 0-.99.024-1.476.06-.119.01-.237.023-.355.036l-.187.02c-.322.033-.644.075-.957.126-.197.033-.388.07-.58.107-.303.06-.598.13-.892.205l-.133.034a7.548 7.548 0 00-.399.11c-.327.098-.645.21-.963.33a2.59 2.59 0 01-.133.044c-.062.02-.125.039-.184.063l-.005.01c-4.298 1.748-7.226 5.542-7.226 11.68v16.068h9.024V13.622c0-1.092.173-2.004.491-2.748.715-1.688 2.172-2.483 4.031-2.492 1.897.005 3.368.832 4.074 2.576.294.725.457 1.609.457 2.66V28.9h9.025V12.83zm52.006 5.821l-3.181-6.258-1.439-2.832 4.774-9.56H203l-9.814 18.65z" fill="#4F4F4F"/><path d="M191.774 21.515L180.878.003h-10.152l11.63 21.512-11.63 21.512h10.152l10.896-21.512z" fill="#FFC627"/></g><defs><clipPath id="clip0_29802_142256"><path fill="#fff" transform="translate(0 .003)" d="M0 0h203v42.996H0z"/></clipPath></defs></svg>